<?xml version="1.0" encoding="utf-8"?>
<!-- Generator: Adobe Illustrator 28.2.0, SVG Export Plug-In . SVG Version: 6.00 Build 0)  -->
<svg version="1.1" id="logo" xmlns="http://www.w3.org/2000/svg" xmlns:xlink="http://www.w3.org/1999/xlink" x="0px" y="0px"
	 viewBox="0 0 1000 1000" style="enable-background:new 0 0 1000 1000;" xml:space="preserve">
<path style="fill:#FFFFFF;" d="M73,818.1V663.8h71.1c16.9,0,30,3.6,39.2,10.7c9.2,7.2,13.8,16.9,13.8,29.3c0,9.2-2.8,17-8.3,23.4
	c-5.4,6.4-12.8,10.7-22.3,12.9v-3.5c11.1,1.9,19.6,6.1,25.6,12.7c6.1,6.4,9.2,14.8,9.2,25.2c0,13.7-4.9,24.4-14.7,32.2
	c-9.6,7.6-23,11.4-40,11.4H73z M105.6,792.7h36.8c8.5,0,14.9-1.6,19.5-4.8c4.5-3.2,6.8-8.3,6.8-15.3c0-7.2-2.3-12.3-6.8-15.3
	c-4.5-3.2-11-4.8-19.5-4.8h-36.8V792.7z M105.6,727.3H138c8.9,0,15.5-1.6,19.7-4.8c4.2-3.2,6.3-8,6.3-14.4c0-6.3-2.1-11-6.3-14.2
	c-4.2-3.2-10.8-4.8-19.7-4.8h-32.4V727.3z"/>
<path style="fill:#FFFFFF;" d="M222.9,818.1v-81.7c0-4.8-0.1-9.7-0.4-14.7c-0.1-5-0.5-9.9-1.1-14.7h31.7l3.7,32.4h-5
	c1.5-7.9,3.8-14.4,7-19.5c3.4-5.1,7.4-8.9,12.3-11.4c5-2.5,10.6-3.7,16.8-3.7c2.8,0,5,0.1,6.6,0.4c1.6,0.1,3.2,0.5,4.8,1.1
	l-0.2,29.1c-3.1-1.3-5.7-2.1-7.9-2.4c-2-0.4-4.7-0.7-7.9-0.7c-6.1,0-11.2,1.2-15.3,3.5c-3.9,2.3-6.9,5.8-9,10.3
	c-1.9,4.5-2.8,10-2.8,16.4v55.4H222.9z"/>
<path style="fill:#FFFFFF;" d="M355.1,820.5c-9.6,0-18.1-2.3-25.4-7c-7.3-4.7-13-11.3-17.1-19.9c-4.1-8.6-6.1-19-6.1-31.1
	c0-12,2-22.3,6.1-30.9c4.1-8.6,9.8-15.2,17.1-19.7c7.3-4.7,15.8-7,25.4-7c8.9,0,16.8,2.2,23.8,6.6c7.1,4.2,11.8,10,14,17.3h-2.4
	l2.6-21.7h31.7c-0.4,4.8-0.9,9.7-1.3,14.7c-0.3,4.8-0.4,9.6-0.4,14.2v82.1h-32.8l-0.2-20.8h2.6c-2.3,7-7,12.6-14,16.9
	C371.7,818.4,363.8,820.5,355.1,820.5z M365.2,795.6c7.6,0,13.7-2.7,18.4-8.1c4.7-5.4,7-13.7,7-25c0-11.2-2.3-19.5-7-24.7
	c-4.7-5.3-10.8-7.9-18.4-7.9s-13.7,2.6-18.4,7.9c-4.7,5.3-7,13.5-7,24.7c0,11.2,2.3,19.6,6.8,25
	C351.2,792.9,357.4,795.6,365.2,795.6z"/>
<path style="fill:#FFFFFF;" d="M493.3,820.5c-9.6,0-18.1-2.3-25.4-7c-7.3-4.7-13-11.3-17.1-19.9c-4.1-8.6-6.1-19-6.1-31.1
	c0-12,2-22.3,6.1-30.9c4.1-8.6,9.8-15.2,17.1-19.7c7.3-4.7,15.8-7,25.4-7c8.9,0,16.8,2.2,23.8,6.6c7.1,4.2,11.8,10,14,17.3h-2.4
	l2.6-21.7h31.7c-0.4,4.8-0.9,9.7-1.3,14.7c-0.3,4.8-0.4,9.6-0.4,14.2v82.1h-32.8l-0.2-20.8h2.6c-2.3,7-7,12.6-14,16.9
	C509.9,818.4,502.1,820.5,493.3,820.5z M503.4,795.6c7.6,0,13.7-2.7,18.4-8.1c4.7-5.4,7-13.7,7-25c0-11.2-2.3-19.5-7-24.7
	c-4.7-5.3-10.8-7.9-18.4-7.9c-7.6,0-13.7,2.6-18.4,7.9c-4.7,5.3-7,13.5-7,24.7c0,11.2,2.3,19.6,6.8,25
	C489.4,792.9,495.6,795.6,503.4,795.6z"/>
<path style="fill:#FFFFFF;" d="M619.5,818.1l-47.9-111h34.8l31.7,80.6h-7.2l32.8-80.6h32.6l-48.3,111H619.5z"/>
<path style="fill:#FFFFFF;" d="M757.8,820.5c-11.8,0-22.1-2.3-30.8-7c-8.6-4.8-15.3-11.5-20.1-20.1c-4.7-8.6-7-18.9-7-30.9
	c0-11.8,2.3-22,7-30.6c4.8-8.6,11.5-15.2,20.1-19.9c8.7-4.7,19-7,30.8-7s22.1,2.3,30.8,7c8.7,4.7,15.5,11.3,20.1,19.9
	c4.8,8.6,7.2,18.8,7.2,30.6c0,12-2.4,22.3-7.2,30.9c-4.7,8.6-11.4,15.3-20.1,20.1C779.9,818.2,769.6,820.5,757.8,820.5z
	 M757.8,795.6c7.6,0,13.6-2.7,17.9-8.1c4.5-5.4,6.8-13.7,6.8-25c0-11.2-2.3-19.5-6.8-24.7c-4.4-5.3-10.4-7.9-17.9-7.9
	s-13.6,2.6-18.2,7.9c-4.4,5.3-6.6,13.5-6.6,24.7c0,11.2,2.2,19.6,6.6,25C744.2,792.9,750.2,795.6,757.8,795.6z"/>
<path style="fill:#FFFFFF;" d="M878.2,820.5c-9.9,0-19-1.1-27.1-3.3c-8.2-2.2-15.1-5.3-20.8-9.2l8.5-21.9c5.7,3.5,12,6.3,18.8,8.3
	c7,2,13.9,3.1,20.8,3.1c6.4,0,11.2-1,14.2-3.1c3.1-2,4.6-4.8,4.6-8.3c0-2.9-1-5.2-3.1-6.8c-1.9-1.6-4.9-2.8-9-3.5l-22.5-4.2
	c-9.5-1.9-16.7-5.4-21.7-10.5c-5-5.1-7.4-11.7-7.4-19.9c0-7.2,1.9-13.4,5.7-18.8c3.9-5.5,9.6-9.9,16.8-12.9
	c7.3-3.1,15.8-4.6,25.6-4.6c8.3,0,16.2,1,23.6,3.1c7.4,2,13.8,5.2,19,9.4l-9,21.2c-4.5-3.4-9.8-6.1-15.8-8.1
	c-5.8-2-11.4-3.1-16.8-3.1c-7,0-12,1.2-15.1,3.5c-3.1,2.2-4.6,5-4.6,8.5c0,2.6,0.9,4.8,2.6,6.6c1.9,1.8,4.7,3.1,8.5,3.9l22.7,4.2
	c9.8,1.8,17.2,5,22.3,9.9c5.1,4.8,7.7,11.5,7.7,19.9c0,7.7-2,14.3-6.1,19.7c-4.1,5.4-9.8,9.6-17.3,12.5
	C896.3,819.1,887.8,820.5,878.2,820.5z"/>
<linearGradient id="SVGID_1_" gradientUnits="userSpaceOnUse" x1="478.8241" y1="840.2716" x2="628.7494" y2="398.4372" gradientTransform="matrix(1 0 0 -1 0 1002)">
	<stop  offset="0" style="stop-color:#F5D45E"/>
	<stop  offset="1" style="stop-color:#FF9600"/>
</linearGradient>
<path style="fill:url(#SVGID_1_);" d="M557.6,214c0.6,1.1-0.2,2.4-1.4,2.4c-25.2,0-45.7,20-46.1,44.8c-8.6-1.6-17.6-1.7-26.4-0.2
	c-0.6-24.7-21-44.5-46.1-44.5c-1.2,0-2.1-1.3-1.4-2.4c12.2-20.7,34.8-34.5,60.8-34.5C522.8,179.5,545.4,193.3,557.6,214z"/>
<linearGradient id="SVGID_00000121957575100188329530000008077386214729070491_" gradientUnits="userSpaceOnUse" x1="433.9012" y1="825.0281" x2="583.8265" y2="383.1937" gradientTransform="matrix(1 0 0 -1 0 1002)">
	<stop  offset="0" style="stop-color:#F5D45E"/>
	<stop  offset="1" style="stop-color:#FF9600"/>
</linearGradient>
<path style="fill:url(#SVGID_00000121957575100188329530000008077386214729070491_);" d="M637.1,368.9c6.4,1.9,12.4-3.7,10.2-9.9
	c-22.1-65.6-95.5-92.3-150.9-92.3c-55.5,0-130.5,27.6-150.9,92.6c-2,6.2,4,11.6,10.3,9.7l135.6-41.6c2.8-0.8,5.7-0.9,8.5,0
	L637.1,368.9z"/>
<linearGradient id="SVGID_00000170245062072003022740000017516158497432757908_" gradientUnits="userSpaceOnUse" x1="399.3731" y1="813.312" x2="549.2984" y2="371.4775" gradientTransform="matrix(1 0 0 -1 0 1002)">
	<stop  offset="0" style="stop-color:#F5D45E"/>
	<stop  offset="1" style="stop-color:#FF9600"/>
</linearGradient>
<path style="fill:url(#SVGID_00000170245062072003022740000017516158497432757908_);" d="M346,379.3l145.7-44.2
	c2.8-0.8,5.7-0.8,8.4,0l146.6,44.2c12.1,3.7,20.4,14.8,20.4,27.5v132c-0.6,32.2-29.5,58-61.7,58H552c-5.3,0-9.6-4.3-9.6-9.6V541
	c0-18.2,10.8-34.7,27.4-42c22.4-9.8,48.8-23,53.8-49.6c1.6-8.6-4-16.8-12.5-18.5c-21.6-4.3-45.6-2.6-65.8,6.4
	c-23,10.3-29,27.4-31.2,50.4l-2.7,24.8c-0.8,7.6-7.9,13.4-15.5,13.4c-7.9,0-13.8-6-14.6-13.8l-2.6-24.3
	c-1.9-19.7-5.4-38.8-25.7-47.9c-23.2-10.4-46.5-13.8-71.3-8.9c-8.5,1.7-14.1,10-12.5,18.5c5,26.8,31.3,39.7,53.8,49.6
	c16.7,7.3,27.4,23.8,27.4,42v46.3c0,5.3-4.3,9.6-9.6,9.6h-53.5c-32.2,0-61.1-25.8-61.7-58v-132C325.6,394.1,333.9,383,346,379.3z"/>
</svg>
